<svg id="svg" version="1.1" xmlns="http://www.w3.org/2000/svg" xmlns:xlink="http://www.w3.org/1999/xlink" width="400" height="400" viewBox="0, 0, 400,400"><g id="svgg"><path id="path0" d="M173.600 18.544 C 173.050 18.841,170.980 20.038,169.000 21.205 C 167.020 22.371,164.155 24.020,162.634 24.869 C 161.113 25.717,159.673 26.563,159.434 26.748 C 159.195 26.933,158.010 27.625,156.800 28.284 C 155.590 28.944,151.090 31.515,146.800 33.998 C 138.711 38.680,135.750 40.383,131.000 43.081 C 125.504 46.203,109.789 55.235,109.200 55.610 C 108.870 55.820,107.295 56.730,105.700 57.632 C 102.454 59.468,102.346 59.635,103.900 60.423 C 104.505 60.731,105.673 61.392,106.496 61.893 C 108.062 62.848,119.390 69.392,124.200 72.121 C 131.531 76.281,136.035 78.877,158.200 91.720 C 165.762 96.102,169.187 98.067,173.000 100.211 C 174.100 100.830,177.970 103.080,181.600 105.213 C 185.230 107.345,190.270 110.291,192.800 111.760 C 195.330 113.229,197.670 114.604,198.000 114.815 C 198.330 115.027,200.850 116.481,203.600 118.047 C 206.350 119.612,210.670 122.111,213.200 123.600 C 215.730 125.089,218.520 126.707,219.400 127.197 C 220.280 127.686,221.990 128.677,223.200 129.398 C 224.410 130.119,228.010 132.229,231.200 134.085 C 234.390 135.942,239.368 138.843,242.261 140.532 C 249.156 144.555,248.256 144.624,257.200 139.398 C 258.630 138.562,260.970 137.209,262.400 136.391 C 263.830 135.573,266.800 133.864,269.000 132.595 C 271.200 131.325,274.260 129.567,275.800 128.687 C 277.340 127.808,279.590 126.507,280.800 125.797 C 282.010 125.088,283.810 124.051,284.800 123.495 C 287.000 122.257,297.151 116.417,304.200 112.334 C 307.060 110.677,310.210 108.864,311.200 108.305 C 319.292 103.736,321.200 102.530,321.200 101.986 C 321.200 101.704,316.641 98.961,310.400 95.489 C 309.190 94.816,307.480 93.811,306.600 93.256 C 305.720 92.700,304.280 91.867,303.400 91.404 C 301.406 90.355,283.347 79.960,275.600 75.401 C 274.390 74.689,272.590 73.654,271.600 73.100 C 270.610 72.547,266.290 70.064,262.000 67.584 C 257.710 65.103,252.985 62.382,251.500 61.537 C 244.555 57.584,243.059 56.727,238.100 53.862 C 235.185 52.178,230.505 49.478,227.700 47.862 C 224.895 46.246,219.720 43.250,216.200 41.203 C 212.680 39.157,208.450 36.720,206.800 35.788 C 202.763 33.508,199.772 31.788,195.000 29.005 C 188.794 25.385,186.340 24.000,186.134 24.000 C 186.029 24.000,185.159 23.460,184.200 22.800 C 183.241 22.140,182.350 21.600,182.221 21.600 C 182.092 21.600,180.652 20.790,179.021 19.800 C 175.836 17.867,175.151 17.708,173.600 18.544 M97.860 95.100 C 97.500 130.731,97.469 144.334,97.536 238.669 L 97.596 323.538 100.612 325.369 C 102.271 326.376,103.716 327.200,103.822 327.200 C 103.929 327.200,104.759 327.669,105.666 328.242 C 107.134 329.169,109.106 330.326,117.200 335.012 C 118.410 335.712,120.750 337.049,122.400 337.983 C 124.050 338.917,126.030 340.089,126.800 340.588 C 128.097 341.428,143.256 350.235,149.200 353.602 C 150.630 354.412,153.420 356.027,155.400 357.191 C 165.590 363.180,169.805 365.520,170.088 365.346 C 170.259 365.240,170.398 308.328,170.396 238.876 L 170.392 112.600 166.496 110.363 C 162.163 107.875,135.161 92.038,131.400 89.779 C 127.503 87.438,124.321 85.572,122.400 84.501 C 121.410 83.948,119.340 82.731,117.800 81.795 C 113.296 79.059,98.462 70.400,98.278 70.400 C 98.185 70.400,97.997 81.515,97.860 95.100 M184.800 241.400 C 184.800 264.170,184.946 282.800,185.124 282.800 C 185.301 282.800,186.516 282.155,187.824 281.367 C 189.131 280.580,191.100 279.433,192.200 278.819 C 193.998 277.817,198.226 275.378,210.600 268.210 C 212.800 266.935,215.950 265.133,217.600 264.205 C 219.250 263.277,223.480 260.841,227.000 258.792 C 230.520 256.743,234.570 254.409,236.000 253.606 C 237.430 252.803,240.400 251.096,242.600 249.814 C 244.800 248.532,248.980 246.117,251.888 244.449 C 254.796 242.781,257.046 241.288,256.888 241.132 C 256.628 240.876,246.460 234.977,242.000 232.495 C 240.082 231.427,236.670 229.439,233.400 227.482 C 232.300 226.824,230.410 225.749,229.200 225.094 C 227.990 224.438,226.550 223.620,226.000 223.276 C 225.450 222.931,222.120 221.002,218.600 218.990 C 215.080 216.977,209.320 213.654,205.800 211.606 C 202.280 209.558,198.050 207.123,196.400 206.195 C 194.750 205.267,191.647 203.494,189.503 202.254 C 187.360 201.014,185.425 200.000,185.203 200.000 C 184.935 200.000,184.800 213.829,184.800 241.400 " stroke="none" fill="#ed7e1d" fill-rule="evenodd"></path><path id="path1" d="M0.000 200.000 L 0.000 400.000 200.000 400.000 L 400.000 400.000 400.000 200.000 L 400.000 0.000 200.000 0.000 L 0.000 0.000 0.000 200.000 M177.940 18.144 C 179.183 18.883,181.550 20.258,183.200 21.199 C 184.850 22.140,187.100 23.452,188.200 24.115 C 189.300 24.777,192.270 26.480,194.800 27.899 C 197.330 29.318,201.110 31.476,203.200 32.696 C 205.290 33.916,208.260 35.633,209.800 36.511 C 211.340 37.390,213.410 38.592,214.400 39.182 C 215.390 39.773,216.560 40.455,217.000 40.698 C 217.440 40.942,219.330 42.033,221.200 43.124 C 223.070 44.215,226.580 46.232,229.000 47.607 C 231.420 48.981,237.000 52.176,241.400 54.708 C 245.800 57.239,253.540 61.692,258.600 64.602 C 263.660 67.513,270.680 71.565,274.200 73.608 C 281.433 77.805,284.521 79.574,288.709 81.919 C 290.309 82.816,292.379 84.023,293.309 84.603 C 294.916 85.605,309.561 94.013,315.280 97.216 C 316.754 98.042,318.464 99.072,319.080 99.506 C 319.696 99.940,320.589 100.416,321.064 100.563 C 323.758 101.399,323.240 102.368,318.697 104.998 C 312.935 108.334,310.365 109.814,303.400 113.810 C 299.660 115.956,294.980 118.651,293.000 119.799 C 291.020 120.948,288.050 122.659,286.400 123.601 C 284.750 124.543,281.960 126.166,280.200 127.207 C 278.440 128.247,276.820 129.167,276.600 129.250 C 276.227 129.390,273.211 131.130,268.000 134.212 C 266.790 134.928,264.720 136.094,263.400 136.803 C 262.080 137.513,260.522 138.433,259.938 138.847 C 259.354 139.261,258.772 139.600,258.645 139.600 C 258.518 139.600,257.251 140.312,255.830 141.182 C 248.188 145.859,250.163 146.153,237.000 138.381 C 235.240 137.342,231.910 135.412,229.600 134.093 C 222.105 129.811,218.222 127.524,217.138 126.754 C 216.554 126.339,215.943 126.000,215.781 126.000 C 215.618 126.000,214.026 125.134,212.243 124.075 C 210.459 123.017,207.020 121.010,204.600 119.615 C 202.180 118.220,199.570 116.684,198.800 116.201 C 197.425 115.339,185.147 108.224,182.400 106.697 C 181.630 106.269,180.010 105.338,178.800 104.628 C 175.121 102.469,169.170 99.010,166.000 97.188 C 164.350 96.239,161.560 94.620,159.800 93.589 C 158.040 92.558,155.250 90.944,153.600 90.002 C 151.950 89.061,149.700 87.744,148.600 87.077 C 147.500 86.410,145.700 85.386,144.600 84.803 C 143.500 84.219,139.090 81.701,134.800 79.207 C 130.510 76.713,125.830 74.009,124.400 73.197 C 118.956 70.106,116.541 68.706,114.800 67.631 C 113.810 67.020,110.528 65.131,107.506 63.432 C 100.245 59.351,100.283 59.555,106.200 56.381 C 107.960 55.437,109.850 54.361,110.400 53.990 C 111.558 53.210,116.414 50.427,119.591 48.722 C 120.796 48.076,121.981 47.382,122.225 47.179 C 122.468 46.977,123.913 46.114,125.434 45.261 C 128.524 43.529,130.753 42.258,140.600 36.615 C 144.340 34.472,148.390 32.132,149.600 31.415 C 150.810 30.698,153.150 29.341,154.800 28.400 C 156.450 27.459,158.790 26.107,160.000 25.397 C 161.210 24.688,163.010 23.653,164.000 23.099 C 164.990 22.544,167.780 20.918,170.200 19.484 C 175.416 16.394,175.091 16.450,177.940 18.144 M101.649 71.300 C 103.648 72.455,106.217 73.940,107.359 74.600 C 108.500 75.260,110.416 76.397,111.617 77.127 C 112.818 77.858,114.970 79.132,116.400 79.960 C 121.853 83.116,127.104 86.182,129.800 87.785 C 131.340 88.701,134.400 90.505,136.600 91.795 C 138.800 93.084,141.860 94.889,143.400 95.806 C 144.940 96.722,147.550 98.252,149.200 99.204 C 152.857 101.317,158.105 104.409,161.600 106.511 C 163.030 107.371,165.820 109.017,167.800 110.167 L 171.400 112.259 171.457 202.830 C 171.488 252.643,171.421 309.825,171.308 329.900 L 171.103 366.400 170.228 366.400 C 169.747 366.400,168.284 365.750,166.976 364.955 C 165.669 364.160,163.611 362.968,162.402 362.307 C 161.194 361.645,159.451 360.586,158.530 359.952 C 157.609 359.318,156.728 358.800,156.572 358.800 C 156.416 358.800,155.369 358.228,154.244 357.528 C 153.120 356.828,151.030 355.598,149.600 354.794 C 148.170 353.991,145.380 352.378,143.400 351.211 C 141.420 350.044,138.630 348.422,137.200 347.605 C 132.895 345.148,122.337 338.996,120.200 337.700 C 119.100 337.033,116.310 335.409,114.000 334.090 C 111.690 332.772,108.090 330.685,106.000 329.452 C 103.910 328.220,101.002 326.550,99.537 325.742 C 97.380 324.551,96.829 324.044,96.635 323.074 C 95.894 319.369,96.662 73.735,97.426 70.100 C 97.671 68.935,97.444 68.871,101.649 71.300 M189.918 201.445 C 194.167 203.845,198.276 206.213,204.400 209.789 C 212.467 214.501,223.609 220.915,228.400 223.607 C 229.830 224.410,232.530 225.962,234.400 227.055 C 236.270 228.148,238.160 229.245,238.600 229.492 C 239.040 229.739,240.930 230.828,242.800 231.913 C 244.670 232.998,247.550 234.656,249.200 235.597 C 256.602 239.819,257.800 240.620,257.800 241.347 C 257.800 242.048,255.216 243.647,241.400 251.496 C 235.565 254.811,233.036 256.268,229.400 258.411 C 225.952 260.443,224.585 261.228,217.400 265.299 C 215.640 266.297,212.130 268.323,209.600 269.803 C 207.070 271.282,204.190 272.946,203.200 273.500 C 202.210 274.054,200.410 275.089,199.200 275.801 C 185.113 284.090,184.778 284.259,184.145 283.393 C 183.578 282.617,183.283 200.891,183.843 199.433 C 184.235 198.410,184.983 198.658,189.918 201.445 " stroke="none" fill="#fcfbfb" fill-rule="evenodd"></path><path id="path2" d="M97.373 103.200 C 97.373 108.590,97.430 110.795,97.499 108.100 C 97.568 105.405,97.568 100.995,97.499 98.300 C 97.430 95.605,97.373 97.810,97.373 103.200 M170.993 154.400 C 170.993 177.390,171.041 186.795,171.100 175.300 C 171.159 163.805,171.159 144.995,171.100 133.500 C 171.041 122.005,170.993 131.410,170.993 154.400 M96.973 135.000 C 96.973 140.500,97.030 142.805,97.099 140.123 C 97.168 137.441,97.168 132.941,97.099 130.123 C 97.030 127.305,96.974 129.500,96.973 135.000 M96.899 238.451 C 96.805 319.044,96.837 323.531,97.500 324.051 C 98.120 324.537,98.143 324.527,97.701 323.960 C 97.306 323.454,97.181 305.510,97.100 238.360 L 96.998 153.400 96.899 238.451 M170.985 216.000 C 170.985 226.450,171.036 230.725,171.100 225.500 C 171.163 220.275,171.163 211.725,171.100 206.500 C 171.036 201.275,170.985 205.550,170.985 216.000 M184.095 241.276 C 184.043 264.088,184.135 282.836,184.300 282.938 C 184.572 283.106,184.569 254.251,184.295 214.800 C 184.237 206.550,184.147 218.464,184.095 241.276 M170.988 305.800 C 170.988 319.220,171.038 324.652,171.100 317.871 C 171.161 311.090,171.161 300.110,171.100 293.471 C 171.038 286.832,170.988 292.380,170.988 305.800 " stroke="none" fill="#fac593" fill-rule="evenodd"></path><path id="path3" d="M174.107 17.925 C 173.823 18.106,174.273 18.230,175.167 18.219 C 176.021 18.209,176.638 18.065,176.537 17.900 C 176.297 17.509,174.738 17.525,174.107 17.925 M177.200 18.543 C 177.200 18.875,182.073 21.660,182.284 21.449 C 182.386 21.348,182.048 21.046,181.534 20.777 C 181.020 20.509,179.835 19.848,178.900 19.307 C 177.965 18.766,177.200 18.422,177.200 18.543 M170.700 19.829 C 169.205 20.640,169.296 20.978,170.800 20.200 C 171.460 19.859,172.000 19.494,172.000 19.390 C 172.000 19.132,171.957 19.147,170.700 19.829 M167.900 21.429 C 166.405 22.240,166.496 22.578,168.000 21.800 C 168.660 21.459,169.200 21.094,169.200 20.990 C 169.200 20.732,169.157 20.747,167.900 21.429 M182.800 21.737 C 182.800 21.977,185.941 24.002,186.291 23.987 C 186.461 23.980,186.240 23.697,185.800 23.357 C 184.844 22.618,182.800 21.515,182.800 21.737 M163.111 24.160 C 160.787 25.541,160.782 25.806,163.100 24.641 C 164.255 24.061,165.200 23.500,165.200 23.393 C 165.200 23.049,164.629 23.258,163.111 24.160 M187.200 24.433 C 187.530 24.645,188.970 25.500,190.400 26.331 C 204.001 34.243,204.400 34.469,204.400 34.249 C 204.400 34.047,203.720 33.630,197.800 30.201 C 195.600 28.926,192.313 27.010,190.494 25.942 C 188.676 24.874,187.056 24.011,186.894 24.024 C 186.733 24.036,186.870 24.221,187.200 24.433 M157.461 27.446 C 156.394 28.001,155.602 28.535,155.700 28.633 C 155.887 28.821,159.600 26.852,159.600 26.566 C 159.600 26.332,159.610 26.328,157.461 27.446 M152.400 30.436 C 151.736 30.979,151.669 31.115,152.200 30.840 C 153.505 30.166,154.228 29.612,153.800 29.615 C 153.580 29.617,152.950 29.986,152.400 30.436 M149.900 31.829 C 148.405 32.640,148.496 32.978,150.000 32.200 C 150.660 31.859,151.200 31.494,151.200 31.390 C 151.200 31.132,151.157 31.147,149.900 31.829 M146.800 33.633 L 145.800 34.448 147.100 33.814 C 147.815 33.465,148.400 33.094,148.400 32.990 C 148.400 32.592,147.763 32.848,146.800 33.633 M144.300 35.029 C 142.805 35.840,142.896 36.178,144.400 35.400 C 145.060 35.059,145.600 34.694,145.600 34.590 C 145.600 34.332,145.557 34.347,144.300 35.029 M204.800 34.593 C 204.800 34.700,205.700 35.243,206.800 35.800 C 209.315 37.075,209.421 36.816,206.950 35.434 C 205.027 34.360,204.800 34.271,204.800 34.593 M141.200 36.836 C 140.536 37.379,140.469 37.515,141.000 37.240 C 142.305 36.566,143.028 36.012,142.600 36.015 C 142.380 36.017,141.750 36.386,141.200 36.836 M210.400 37.779 C 210.400 37.889,210.940 38.259,211.600 38.600 C 212.260 38.941,212.800 39.131,212.800 39.021 C 212.800 38.911,212.260 38.541,211.600 38.200 C 210.940 37.859,210.400 37.669,210.400 37.779 M136.711 39.360 C 134.387 40.741,134.382 41.006,136.700 39.841 C 137.855 39.261,138.800 38.700,138.800 38.593 C 138.800 38.249,138.229 38.458,136.711 39.360 M213.200 39.390 C 213.200 39.494,213.785 39.865,214.500 40.214 L 215.800 40.848 214.800 40.033 C 213.837 39.248,213.200 38.992,213.200 39.390 M216.000 40.941 C 216.000 41.051,217.035 41.724,218.300 42.436 C 219.565 43.148,221.860 44.477,223.400 45.390 C 227.575 47.863,231.053 49.742,230.600 49.280 C 230.380 49.056,228.040 47.628,225.400 46.106 C 217.559 41.587,216.000 40.731,216.000 40.941 M131.100 42.626 C 130.055 43.170,129.200 43.705,129.200 43.814 C 129.200 43.924,130.100 43.557,131.200 43.000 C 132.300 42.443,133.200 41.900,133.200 41.793 C 133.200 41.529,133.236 41.514,131.100 42.626 M126.300 45.429 C 124.805 46.240,124.896 46.578,126.400 45.800 C 127.060 45.459,127.600 45.094,127.600 44.990 C 127.600 44.732,127.557 44.747,126.300 45.429 M123.500 47.029 C 122.005 47.840,122.096 48.178,123.600 47.400 C 124.260 47.059,124.800 46.694,124.800 46.590 C 124.800 46.332,124.757 46.347,123.500 47.029 M120.700 48.629 C 119.205 49.440,119.296 49.778,120.800 49.000 C 121.460 48.659,122.000 48.294,122.000 48.190 C 122.000 47.932,121.957 47.947,120.700 48.629 M117.900 50.229 C 116.405 51.040,116.496 51.378,118.000 50.600 C 118.660 50.259,119.200 49.894,119.200 49.790 C 119.200 49.532,119.157 49.547,117.900 50.229 M231.200 49.750 C 231.200 49.833,232.865 50.852,234.900 52.014 C 236.935 53.177,239.365 54.566,240.300 55.102 C 241.235 55.638,242.000 55.977,242.000 55.855 C 242.000 55.733,241.145 55.150,240.100 54.560 C 239.055 53.969,236.713 52.611,234.894 51.543 C 231.711 49.672,231.200 49.424,231.200 49.750 M114.500 52.226 C 113.565 52.787,112.800 53.340,112.800 53.455 C 112.800 53.671,115.499 52.138,116.180 51.536 C 116.867 50.928,116.227 51.191,114.500 52.226 M110.600 54.427 C 109.940 54.850,109.580 55.196,109.800 55.195 C 110.020 55.195,110.740 54.837,111.400 54.400 C 112.060 53.963,112.420 53.617,112.200 53.632 C 111.980 53.647,111.260 54.004,110.600 54.427 M243.000 56.600 C 243.893 57.341,248.029 59.506,247.400 58.903 C 247.180 58.692,245.920 57.939,244.600 57.229 C 243.280 56.518,242.560 56.236,243.000 56.600 M104.627 57.909 C 102.323 59.183,102.001 59.776,103.276 60.395 C 104.105 60.798,104.128 60.786,103.500 60.278 C 102.494 59.464,102.581 59.324,104.800 58.200 C 105.900 57.643,106.800 57.100,106.800 56.993 C 106.800 56.711,106.778 56.720,104.627 57.909 M248.600 59.800 C 249.493 60.541,253.629 62.706,253.000 62.103 C 252.780 61.892,251.520 61.139,250.200 60.429 C 248.880 59.718,248.160 59.436,248.600 59.800 M104.400 60.962 C 104.400 61.138,108.751 63.719,109.400 63.928 C 109.620 63.999,108.682 63.324,107.315 62.428 C 104.943 60.874,104.400 60.601,104.400 60.962 M253.600 62.582 C 253.600 62.744,255.314 63.769,261.100 67.065 C 262.035 67.598,262.800 67.944,262.800 67.835 C 262.800 67.725,261.495 66.887,259.900 65.972 C 258.305 65.057,256.329 63.879,255.509 63.354 C 254.026 62.406,253.600 62.233,253.600 62.582 M110.000 64.179 C 110.000 64.289,110.540 64.659,111.200 65.000 C 111.860 65.341,112.400 65.531,112.400 65.421 C 112.400 65.311,111.860 64.941,111.200 64.600 C 110.540 64.259,110.000 64.069,110.000 64.179 M112.800 65.779 C 112.800 65.889,113.340 66.259,114.000 66.600 C 114.660 66.941,115.200 67.131,115.200 67.021 C 115.200 66.911,114.660 66.541,114.000 66.200 C 113.340 65.859,112.800 65.669,112.800 65.779 M115.600 67.379 C 115.600 67.489,116.140 67.859,116.800 68.200 C 117.460 68.541,118.000 68.731,118.000 68.621 C 118.000 68.511,117.460 68.141,116.800 67.800 C 116.140 67.459,115.600 67.269,115.600 67.379 M263.400 68.297 C 263.620 68.508,264.880 69.261,266.200 69.971 C 267.520 70.682,268.240 70.964,267.800 70.600 C 266.907 69.859,262.771 67.694,263.400 68.297 M119.200 69.564 C 119.750 70.014,120.380 70.383,120.600 70.385 C 121.028 70.388,120.305 69.834,119.000 69.160 C 118.469 68.885,118.536 69.021,119.200 69.564 M97.694 83.500 L 97.789 97.000 97.900 83.700 C 97.961 76.385,98.113 70.400,98.237 70.400 C 98.438 70.400,108.695 76.348,111.149 77.888 C 111.671 78.215,111.985 78.299,111.846 78.074 C 111.707 77.849,110.380 76.957,108.897 76.091 C 99.860 70.817,98.402 70.000,98.021 70.000 C 97.733 70.000,97.630 74.254,97.694 83.500 M122.400 71.387 C 122.400 71.497,123.300 72.043,124.400 72.600 C 125.500 73.157,126.400 73.523,126.400 73.413 C 126.400 73.303,125.500 72.757,124.400 72.200 C 123.300 71.643,122.400 71.277,122.400 71.387 M269.600 71.967 C 270.563 72.752,271.200 73.008,271.200 72.610 C 271.200 72.506,270.615 72.135,269.900 71.786 L 268.600 71.152 269.600 71.967 M271.600 72.990 C 271.600 73.094,272.185 73.465,272.900 73.814 L 274.200 74.448 273.200 73.633 C 272.237 72.848,271.600 72.592,271.600 72.990 M128.000 74.559 C 128.000 74.851,131.710 76.823,131.901 76.633 C 131.999 76.534,131.162 75.989,130.040 75.420 C 128.918 74.852,128.000 74.464,128.000 74.559 M275.000 75.000 C 275.893 75.741,280.029 77.906,279.400 77.303 C 279.180 77.092,277.920 76.339,276.600 75.629 C 275.280 74.918,274.560 74.636,275.000 75.000 M133.600 77.779 C 133.600 77.889,134.140 78.259,134.800 78.600 C 135.460 78.941,136.000 79.131,136.000 79.021 C 136.000 78.911,135.460 78.541,134.800 78.200 C 134.140 77.859,133.600 77.669,133.600 77.779 M113.011 78.927 C 114.601 79.988,117.600 81.628,117.600 81.436 C 117.600 81.203,112.881 78.400,112.490 78.400 C 112.342 78.400,112.577 78.637,113.011 78.927 M281.420 78.738 C 281.629 78.923,285.220 81.021,289.400 83.400 C 298.446 88.547,297.600 88.085,297.600 87.881 C 297.600 87.730,293.572 85.297,290.000 83.289 C 289.230 82.857,287.011 81.580,285.068 80.451 C 281.753 78.525,280.540 77.956,281.420 78.738 M136.400 79.379 C 136.400 79.489,136.940 79.859,137.600 80.200 C 138.260 80.541,138.800 80.731,138.800 80.621 C 138.800 80.511,138.260 80.141,137.600 79.800 C 136.940 79.459,136.400 79.269,136.400 79.379 M139.800 81.400 C 140.693 82.141,144.829 84.306,144.200 83.703 C 143.980 83.492,142.720 82.739,141.400 82.029 C 140.080 81.318,139.360 81.036,139.800 81.400 M118.000 81.743 C 118.000 82.075,122.873 84.860,123.084 84.649 C 123.186 84.548,122.848 84.246,122.334 83.977 C 121.820 83.709,120.635 83.048,119.700 82.507 C 118.765 81.966,118.000 81.622,118.000 81.743 M144.800 84.164 C 144.800 84.397,149.519 87.200,149.910 87.200 C 150.251 87.200,149.118 86.444,146.700 85.056 C 145.655 84.457,144.800 84.055,144.800 84.164 M124.400 85.541 C 125.485 86.448,130.000 88.964,130.000 88.662 C 130.000 88.560,128.965 87.893,127.700 87.180 C 126.435 86.467,124.950 85.619,124.400 85.294 L 123.400 84.705 124.400 85.541 M151.000 87.796 C 151.894 88.539,154.428 89.909,153.800 89.310 C 153.580 89.100,152.680 88.524,151.800 88.030 C 150.920 87.535,150.560 87.430,151.000 87.796 M298.200 88.290 C 298.420 88.500,299.320 89.076,300.200 89.570 C 301.080 90.065,301.440 90.170,301.000 89.804 C 300.106 89.061,297.572 87.691,298.200 88.290 M132.370 90.283 C 132.904 90.677,134.434 91.586,135.770 92.303 C 137.107 93.019,137.765 93.289,137.234 92.903 C 136.703 92.516,135.173 91.607,133.834 90.883 C 132.495 90.159,131.837 89.889,132.370 90.283 M154.400 89.741 C 154.400 90.008,158.090 92.043,158.263 91.871 C 158.340 91.793,157.503 91.239,156.402 90.640 C 155.301 90.040,154.400 89.636,154.400 89.741 M302.000 90.590 C 302.000 90.824,304.239 92.001,304.680 91.999 C 304.856 91.998,304.411 91.638,303.690 91.199 C 302.351 90.382,302.000 90.256,302.000 90.590 M160.000 92.979 C 160.000 93.089,160.540 93.459,161.200 93.800 C 161.860 94.141,162.400 94.331,162.400 94.221 C 162.400 94.111,161.860 93.741,161.200 93.400 C 160.540 93.059,160.000 92.869,160.000 92.979 M138.400 93.739 C 138.400 93.912,140.329 95.076,143.600 96.876 C 144.796 97.534,144.859 97.541,144.034 96.923 C 142.751 95.963,138.400 93.504,138.400 93.739 M307.600 93.766 C 307.600 94.035,311.307 96.027,311.482 95.852 C 311.570 95.764,310.800 95.221,309.770 94.646 C 307.863 93.580,307.600 93.473,307.600 93.766 M162.800 94.579 C 162.800 94.689,163.340 95.059,164.000 95.400 C 164.660 95.741,165.200 95.931,165.200 95.821 C 165.200 95.711,164.660 95.341,164.000 95.000 C 163.340 94.659,162.800 94.469,162.800 94.579 M166.800 96.987 C 166.800 97.097,167.700 97.643,168.800 98.200 C 169.900 98.757,170.800 99.123,170.800 99.013 C 170.800 98.903,169.900 98.357,168.800 97.800 C 167.700 97.243,166.800 96.877,166.800 96.987 M313.400 97.102 C 313.953 97.669,318.696 100.234,318.200 99.698 C 317.980 99.460,316.720 98.687,315.400 97.979 C 314.080 97.271,313.180 96.877,313.400 97.102 M145.200 97.779 C 145.200 97.889,145.740 98.259,146.400 98.600 C 147.060 98.941,147.600 99.131,147.600 99.021 C 147.600 98.911,147.060 98.541,146.400 98.200 C 145.740 97.859,145.200 97.669,145.200 97.779 M148.000 99.330 C 148.000 99.438,149.935 100.657,152.300 102.039 C 154.665 103.421,158.760 105.837,161.400 107.408 C 167.020 110.753,168.000 111.293,168.000 111.043 C 168.000 110.941,166.335 109.875,164.300 108.675 C 162.265 107.474,157.900 104.896,154.601 102.946 C 148.033 99.064,148.000 99.046,148.000 99.330 M172.400 100.159 C 172.400 100.451,176.110 102.423,176.301 102.233 C 176.399 102.134,175.562 101.589,174.440 101.020 C 173.318 100.452,172.400 100.064,172.400 100.159 M319.265 100.471 C 319.631 100.762,320.261 101.219,320.665 101.487 C 321.356 101.945,321.328 102.038,320.200 103.037 L 319.000 104.100 320.368 103.346 C 322.275 102.295,322.265 101.889,320.307 100.849 C 319.368 100.350,318.899 100.180,319.265 100.471 M177.400 102.996 C 178.294 103.739,180.828 105.109,180.200 104.510 C 179.980 104.300,179.080 103.724,178.200 103.230 C 177.320 102.735,176.960 102.630,177.400 102.996 M316.100 105.429 C 314.725 106.209,313.600 106.935,313.600 107.044 C 313.600 107.279,318.031 104.897,318.580 104.367 C 319.242 103.728,318.670 103.973,316.100 105.429 M180.800 104.979 C 180.800 105.089,181.340 105.459,182.000 105.800 C 182.660 106.141,183.200 106.331,183.200 106.221 C 183.200 106.111,182.660 105.741,182.000 105.400 C 181.340 105.059,180.800 104.869,180.800 104.979 M184.200 106.996 C 185.094 107.739,187.628 109.109,187.000 108.510 C 186.780 108.300,185.880 107.724,185.000 107.230 C 184.120 106.735,183.760 106.630,184.200 106.996 M308.200 109.958 C 306.440 111.004,303.507 112.723,301.682 113.778 C 299.857 114.834,298.452 115.785,298.559 115.892 C 298.666 116.000,299.259 115.737,299.877 115.308 C 300.495 114.879,303.475 113.122,306.500 111.403 C 309.525 109.684,312.000 108.215,312.000 108.139 C 312.000 107.795,311.185 108.185,308.200 109.958 M187.600 108.979 C 187.600 109.089,188.140 109.459,188.800 109.800 C 189.460 110.141,190.000 110.331,190.000 110.221 C 190.000 110.111,189.460 109.741,188.800 109.400 C 188.140 109.059,187.600 108.869,187.600 108.979 M191.000 111.000 C 191.893 111.741,196.029 113.906,195.400 113.303 C 195.180 113.092,193.920 112.339,192.600 111.629 C 191.280 110.918,190.560 110.636,191.000 111.000 M168.976 111.781 C 169.404 112.121,169.899 112.400,170.076 112.400 C 170.453 112.400,170.524 364.943,170.147 365.319 C 170.008 365.458,169.558 365.392,169.147 365.172 C 168.736 364.952,168.400 364.862,168.400 364.972 C 168.400 365.573,170.121 366.052,170.445 365.541 C 170.634 365.243,170.791 308.214,170.794 238.710 L 170.800 112.421 169.500 111.791 C 168.352 111.235,168.291 111.234,168.976 111.781 M97.138 130.900 C 97.062 140.855,97.090 188.308,97.200 236.351 L 97.400 323.703 98.400 324.300 L 99.400 324.898 98.498 324.146 L 97.596 323.394 97.545 238.597 C 97.516 191.959,97.538 144.575,97.592 133.300 C 97.647 122.025,97.598 112.800,97.484 112.800 C 97.369 112.800,97.214 120.945,97.138 130.900 M200.000 116.179 C 200.000 116.289,200.540 116.659,201.200 117.000 C 201.860 117.341,202.400 117.531,202.400 117.421 C 202.400 117.311,201.860 116.941,201.200 116.600 C 200.540 116.259,200.000 116.069,200.000 116.179 M296.700 116.629 C 295.205 117.440,295.296 117.778,296.800 117.000 C 297.460 116.659,298.000 116.294,298.000 116.190 C 298.000 115.932,297.957 115.947,296.700 116.629 M203.400 118.215 C 204.304 118.948,208.419 121.093,207.800 120.508 C 207.580 120.300,206.320 119.553,205.000 118.848 C 203.680 118.142,202.960 117.858,203.400 118.215 M290.800 120.028 C 288.490 121.355,286.420 122.641,286.200 122.887 C 285.980 123.133,286.520 122.917,287.400 122.408 C 288.280 121.899,290.008 120.924,291.239 120.241 C 293.585 118.941,295.541 117.651,295.200 117.629 C 295.090 117.621,293.110 118.701,290.800 120.028 M209.129 121.476 C 210.193 122.359,214.800 124.950,214.800 124.665 C 214.800 124.561,213.765 123.893,212.500 123.180 C 211.235 122.467,209.750 121.619,209.200 121.294 L 208.200 120.705 209.129 121.476 M282.925 124.531 C 279.968 126.339,279.758 126.775,282.600 125.205 C 285.147 123.799,286.019 123.179,285.380 123.231 C 285.171 123.247,284.066 123.832,282.925 124.531 M215.800 125.396 C 216.694 126.139,219.228 127.509,218.600 126.910 C 218.380 126.700,217.480 126.124,216.600 125.630 C 215.720 125.135,215.360 125.030,215.800 125.396 M277.601 127.627 C 276.391 128.293,275.221 129.037,275.001 129.279 C 274.580 129.742,279.122 127.329,279.780 126.740 C 280.447 126.143,279.857 126.383,277.601 127.627 M219.200 127.362 C 219.200 127.538,223.551 130.119,224.200 130.328 C 224.420 130.399,223.482 129.724,222.115 128.828 C 219.743 127.274,219.200 127.001,219.200 127.362 M272.001 130.827 C 270.791 131.493,269.621 132.237,269.401 132.479 C 268.980 132.942,273.522 130.529,274.180 129.940 C 274.847 129.343,274.257 129.583,272.001 130.827 M224.800 130.579 C 224.800 130.689,225.340 131.059,226.000 131.400 C 226.660 131.741,227.200 131.931,227.200 131.821 C 227.200 131.711,226.660 131.341,226.000 131.000 C 225.340 130.659,224.800 130.469,224.800 130.579 M228.200 132.611 C 228.640 132.969,229.540 133.526,230.200 133.850 C 231.322 134.401,231.348 134.397,230.600 133.789 C 230.160 133.431,229.260 132.874,228.600 132.550 C 227.478 131.999,227.452 132.003,228.200 132.611 M265.200 134.800 C 263.330 135.887,260.448 137.513,258.796 138.414 C 257.144 139.315,255.344 140.419,254.796 140.868 C 253.913 141.592,253.981 141.583,255.400 140.785 C 256.280 140.290,257.990 139.344,259.200 138.682 C 260.410 138.020,261.850 137.168,262.400 136.790 C 262.950 136.412,264.300 135.644,265.400 135.083 C 267.291 134.120,269.236 132.827,268.800 132.824 C 268.690 132.824,267.070 133.713,265.200 134.800 M231.600 134.579 C 231.600 134.689,232.140 135.059,232.800 135.400 C 233.460 135.741,234.000 135.931,234.000 135.821 C 234.000 135.711,233.460 135.341,232.800 135.000 C 232.140 134.659,231.600 134.469,231.600 134.579 M235.000 136.615 C 235.904 137.348,240.019 139.493,239.400 138.908 C 239.180 138.700,237.920 137.953,236.600 137.248 C 235.280 136.542,234.560 136.258,235.000 136.615 M240.600 139.796 C 241.494 140.539,244.028 141.909,243.400 141.310 C 243.180 141.100,242.280 140.524,241.400 140.030 C 240.520 139.535,240.160 139.430,240.600 139.796 M244.000 141.779 C 244.000 141.889,244.540 142.259,245.200 142.600 C 245.860 142.941,246.400 143.131,246.400 143.021 C 246.400 142.911,245.860 142.541,245.200 142.200 C 244.540 141.859,244.000 141.669,244.000 141.779 M251.043 142.799 C 249.493 143.679,248.847 143.843,247.943 143.584 C 246.505 143.171,246.445 143.485,247.857 144.022 C 248.864 144.404,252.045 143.216,253.380 141.958 C 254.093 141.286,253.031 141.669,251.043 142.799 M184.667 199.467 C 184.227 199.906,184.348 282.721,184.788 282.993 C 185.167 283.227,187.600 282.177,187.600 281.779 C 187.600 281.669,187.069 281.854,186.420 282.190 C 185.771 282.525,185.141 282.800,185.020 282.800 C 184.899 282.800,184.800 264.170,184.800 241.400 C 184.800 211.127,184.920 200.000,185.248 200.000 C 185.494 200.000,186.709 200.601,187.948 201.335 C 192.130 203.815,194.000 204.835,194.000 204.635 C 194.000 204.525,192.695 203.687,191.100 202.772 C 189.505 201.857,187.529 200.679,186.709 200.154 C 185.052 199.094,185.042 199.091,184.667 199.467 M194.400 204.993 C 194.400 205.100,195.300 205.643,196.400 206.200 C 198.915 207.475,199.021 207.216,196.550 205.834 C 194.627 204.760,194.400 204.671,194.400 204.993 M200.000 208.179 C 200.000 208.289,200.540 208.659,201.200 209.000 C 201.860 209.341,202.400 209.531,202.400 209.421 C 202.400 209.311,201.860 208.941,201.200 208.600 C 200.540 208.259,200.000 208.069,200.000 208.179 M202.800 209.790 C 202.800 209.894,203.385 210.265,204.100 210.614 L 205.400 211.248 204.400 210.433 C 203.437 209.648,202.800 209.392,202.800 209.790 M205.800 211.506 C 206.344 212.058,210.800 214.527,210.800 214.276 C 210.800 214.166,209.765 213.474,208.500 212.738 C 205.866 211.206,205.209 210.907,205.800 211.506 M211.200 214.544 C 211.200 214.740,212.779 215.692,218.700 219.065 C 219.635 219.598,220.400 219.944,220.400 219.835 C 220.400 219.657,219.178 218.919,212.900 215.303 C 211.965 214.765,211.200 214.423,211.200 214.544 M220.800 220.170 C 220.800 220.263,221.745 220.865,222.900 221.506 C 224.055 222.147,226.150 223.335,227.556 224.146 C 228.963 224.957,230.195 225.538,230.295 225.438 C 230.395 225.338,229.695 224.860,228.739 224.376 C 227.782 223.892,225.698 222.710,224.107 221.748 C 221.300 220.052,220.800 219.814,220.800 220.170 M232.600 227.000 C 233.493 227.741,237.629 229.906,237.000 229.303 C 236.780 229.092,235.520 228.339,234.200 227.629 C 232.880 226.918,232.160 226.636,232.600 227.000 M238.800 230.566 C 238.800 230.835,242.507 232.827,242.682 232.652 C 242.770 232.564,242.000 232.021,240.970 231.446 C 239.063 230.380,238.800 230.273,238.800 230.566 M243.200 232.944 C 243.200 233.140,244.779 234.092,250.700 237.465 C 251.635 237.998,252.400 238.344,252.400 238.235 C 252.400 238.057,251.178 237.319,244.900 233.703 C 243.965 233.165,243.200 232.823,243.200 232.944 M252.800 238.538 C 252.800 238.640,253.820 239.299,255.066 240.002 L 257.331 241.281 255.266 242.473 C 254.130 243.129,253.200 243.756,253.200 243.866 C 253.200 244.187,257.371 241.688,257.504 241.288 C 257.571 241.088,256.539 240.346,255.213 239.639 C 253.886 238.932,252.800 238.436,252.800 238.538 M249.600 245.748 C 240.629 250.901,238.563 252.126,238.200 252.503 C 237.699 253.022,237.658 253.044,242.600 250.181 C 244.800 248.907,247.860 247.165,249.400 246.310 C 251.901 244.921,253.288 243.978,252.780 244.012 C 252.681 244.019,251.250 244.800,249.600 245.748 M235.201 254.027 C 233.991 254.693,232.821 255.437,232.601 255.679 C 232.180 256.142,236.722 253.729,237.380 253.140 C 238.047 252.543,237.457 252.783,235.201 254.027 M229.300 257.429 C 227.925 258.209,226.800 258.939,226.800 259.053 C 226.800 259.274,231.148 256.906,231.780 256.340 C 232.484 255.710,231.813 256.005,229.300 257.429 M223.904 260.542 C 220.952 262.235,220.414 262.794,223.000 261.480 C 224.886 260.522,226.839 259.226,226.400 259.225 C 226.290 259.224,225.167 259.817,223.904 260.542 M217.500 264.226 C 216.455 264.770,215.600 265.305,215.600 265.414 C 215.600 265.524,216.500 265.157,217.600 264.600 C 218.700 264.043,219.600 263.500,219.600 263.393 C 219.600 263.129,219.636 263.114,217.500 264.226 M213.800 266.346 C 213.140 266.748,211.107 267.937,209.282 268.988 C 207.457 270.038,206.045 270.979,206.145 271.079 C 206.245 271.178,207.018 270.817,207.863 270.276 C 208.708 269.734,210.705 268.543,212.300 267.628 C 213.895 266.713,215.200 265.883,215.200 265.782 C 215.200 265.511,215.106 265.549,213.800 266.346 M202.900 272.629 C 201.525 273.409,200.400 274.139,200.400 274.253 C 200.400 274.474,204.748 272.106,205.380 271.540 C 206.084 270.910,205.413 271.205,202.900 272.629 M198.700 275.029 C 198.095 275.357,197.600 275.710,197.600 275.813 C 197.600 276.199,198.232 275.957,199.200 275.200 C 200.389 274.270,200.211 274.209,198.700 275.029 M195.900 276.629 C 194.405 277.440,194.496 277.778,196.000 277.000 C 196.660 276.659,197.200 276.294,197.200 276.190 C 197.200 275.932,197.157 275.947,195.900 276.629 M190.525 279.731 C 187.565 281.541,187.369 281.935,190.200 280.384 C 192.752 278.987,193.616 278.379,192.980 278.431 C 192.771 278.447,191.666 279.032,190.525 279.731 M100.200 325.396 C 101.094 326.139,103.628 327.509,103.000 326.910 C 102.780 326.700,101.880 326.124,101.000 325.630 C 100.120 325.135,99.760 325.030,100.200 325.396 M103.600 327.362 C 103.600 327.538,107.951 330.119,108.600 330.328 C 108.820 330.399,107.882 329.724,106.515 328.828 C 104.143 327.274,103.600 327.001,103.600 327.362 M109.200 330.579 C 109.200 330.689,109.740 331.059,110.400 331.400 C 111.060 331.741,111.600 331.931,111.600 331.821 C 111.600 331.711,111.060 331.341,110.400 331.000 C 109.740 330.659,109.200 330.469,109.200 330.579 M112.600 332.596 C 113.494 333.339,116.028 334.709,115.400 334.110 C 115.180 333.900,114.280 333.324,113.400 332.830 C 112.520 332.335,112.160 332.230,112.600 332.596 M116.200 334.690 C 116.420 334.898,117.500 335.559,118.600 336.159 C 119.700 336.759,120.240 336.955,119.800 336.594 C 118.905 335.859,115.573 334.097,116.200 334.690 M122.400 338.367 C 123.363 339.152,124.000 339.408,124.000 339.010 C 124.000 338.906,123.415 338.535,122.700 338.186 L 121.400 337.552 122.400 338.367 M124.410 339.323 C 124.778 339.726,127.625 341.600,127.872 341.600 C 128.227 341.600,126.340 340.191,125.200 339.605 C 124.650 339.323,124.295 339.196,124.410 339.323 M128.400 341.779 C 128.400 341.889,128.940 342.259,129.600 342.600 C 130.260 342.941,130.800 343.131,130.800 343.021 C 130.800 342.911,130.260 342.541,129.600 342.200 C 128.940 341.859,128.400 341.669,128.400 341.779 M131.200 343.364 C 131.200 343.597,135.919 346.400,136.310 346.400 C 136.651 346.400,135.518 345.644,133.100 344.256 C 132.055 343.657,131.200 343.255,131.200 343.364 M137.400 346.996 C 138.294 347.739,140.828 349.109,140.200 348.510 C 139.980 348.300,139.080 347.724,138.200 347.230 C 137.320 346.735,136.960 346.630,137.400 346.996 M140.800 348.979 C 140.800 349.089,141.340 349.459,142.000 349.800 C 142.660 350.141,143.200 350.331,143.200 350.221 C 143.200 350.111,142.660 349.741,142.000 349.400 C 141.340 349.059,140.800 348.869,140.800 348.979 M143.600 350.579 C 143.600 350.689,144.140 351.059,144.800 351.400 C 145.460 351.741,146.000 351.931,146.000 351.821 C 146.000 351.711,145.460 351.341,144.800 351.000 C 144.140 350.659,143.600 350.469,143.600 350.579 M147.800 353.092 C 148.020 353.300,149.280 354.047,150.600 354.752 C 151.920 355.458,152.640 355.742,152.200 355.385 C 151.296 354.652,147.181 352.507,147.800 353.092 M153.200 356.179 C 153.200 356.289,153.740 356.659,154.400 357.000 C 155.060 357.341,155.600 357.531,155.600 357.421 C 155.600 357.311,155.060 356.941,154.400 356.600 C 153.740 356.259,153.200 356.069,153.200 356.179 M156.000 357.779 C 156.000 357.889,156.540 358.259,157.200 358.600 C 157.860 358.941,158.400 359.131,158.400 359.021 C 158.400 358.911,157.860 358.541,157.200 358.200 C 156.540 357.859,156.000 357.669,156.000 357.779 M160.200 360.275 C 160.420 360.498,161.680 361.274,163.000 362.000 C 164.320 362.726,165.220 363.133,165.000 362.904 C 164.780 362.675,163.520 361.899,162.200 361.179 C 160.880 360.459,159.980 360.052,160.200 360.275 M165.600 363.379 C 165.600 363.489,166.140 363.859,166.800 364.200 C 167.460 364.541,168.000 364.731,168.000 364.621 C 168.000 364.511,167.460 364.141,166.800 363.800 C 166.140 363.459,165.600 363.269,165.600 363.379 " stroke="none" fill="#fcbc82" fill-rule="evenodd"></path><path id="path4" d="M170.200 19.484 C 167.780 20.918,164.990 22.544,164.000 23.099 C 163.010 23.653,161.210 24.688,160.000 25.397 C 158.790 26.107,156.450 27.459,154.800 28.400 C 153.150 29.341,150.810 30.698,149.600 31.415 C 148.390 32.132,144.340 34.472,140.600 36.615 C 130.753 42.258,128.524 43.529,125.434 45.261 C 123.913 46.114,122.468 46.977,122.225 47.179 C 121.981 47.382,120.796 48.078,119.591 48.727 C 115.449 50.958,110.999 53.548,110.200 54.193 C 109.364 54.869,111.846 53.579,115.600 51.386 C 116.810 50.679,118.610 49.652,119.600 49.102 C 120.590 48.553,123.020 47.152,125.000 45.989 C 126.980 44.826,129.770 43.209,131.200 42.396 C 135.798 39.780,150.041 31.591,155.400 28.482 C 158.260 26.822,161.770 24.804,163.200 23.998 C 164.630 23.191,167.848 21.332,170.352 19.866 C 175.681 16.745,175.088 16.848,177.940 18.546 C 183.534 21.877,187.229 24.000,187.433 24.000 C 187.556 24.000,188.441 24.540,189.400 25.200 C 190.359 25.860,191.292 26.396,191.472 26.391 C 191.895 26.380,187.325 23.500,183.317 21.251 C 181.603 20.289,179.183 18.894,177.940 18.151 C 175.092 16.449,175.418 16.393,170.200 19.484 M192.000 26.545 C 192.000 26.636,193.665 27.650,195.700 28.800 C 197.735 29.950,201.110 31.885,203.200 33.102 C 205.290 34.318,208.260 36.033,209.800 36.911 C 211.340 37.790,213.500 39.051,214.600 39.712 C 215.700 40.374,217.590 41.456,218.800 42.118 C 220.010 42.780,221.478 43.655,222.062 44.061 C 222.646 44.467,223.276 44.795,223.462 44.790 C 223.890 44.776,218.320 41.211,217.862 41.204 C 217.676 41.202,216.992 40.821,216.342 40.359 C 215.692 39.896,213.864 38.791,212.280 37.904 C 208.297 35.672,205.037 33.807,199.200 30.422 C 193.515 27.125,192.000 26.309,192.000 26.545 M224.200 45.075 C 224.420 45.298,225.680 46.074,227.000 46.800 C 228.320 47.526,229.220 47.933,229.000 47.704 C 228.780 47.475,227.520 46.699,226.200 45.979 C 224.880 45.259,223.980 44.852,224.200 45.075 M229.800 48.302 C 230.020 48.540,231.280 49.313,232.600 50.021 C 233.920 50.729,234.820 51.123,234.600 50.898 C 234.047 50.331,229.304 47.766,229.800 48.302 M235.400 51.510 C 235.747 51.872,245.112 57.360,250.400 60.300 C 251.390 60.851,253.190 61.882,254.400 62.591 C 258.653 65.084,261.200 66.457,261.200 66.255 C 261.200 66.143,259.625 65.160,257.700 64.071 C 255.775 62.982,250.690 60.072,246.400 57.606 C 235.728 51.469,234.942 51.033,235.400 51.510 M105.481 56.755 C 101.910 58.740,101.228 59.409,102.014 60.158 C 102.735 60.845,107.200 63.354,107.200 63.073 C 107.200 62.961,106.020 62.209,104.577 61.402 C 101.446 59.651,101.461 59.521,105.020 57.510 C 107.496 56.111,108.895 55.159,108.380 55.222 C 108.281 55.234,106.977 55.924,105.481 56.755 M107.800 63.496 C 108.020 63.725,109.280 64.501,110.600 65.221 C 111.920 65.941,112.820 66.348,112.600 66.125 C 112.380 65.902,111.120 65.126,109.800 64.400 C 108.480 63.674,107.580 63.267,107.800 63.496 M115.710 68.110 C 117.200 69.040,119.810 70.590,121.510 71.556 C 124.749 73.398,127.675 75.088,138.142 81.167 C 141.629 83.193,144.561 84.773,144.655 84.678 C 144.750 84.583,143.156 83.562,141.114 82.408 C 139.071 81.254,135.690 79.315,133.600 78.098 C 131.510 76.882,128.630 75.218,127.200 74.400 C 120.852 70.771,116.489 68.226,115.109 67.348 C 114.288 66.827,113.478 66.405,113.309 66.410 C 113.139 66.416,114.219 67.181,115.710 68.110 M262.200 66.996 C 263.118 67.763,267.205 69.891,266.600 69.287 C 266.380 69.068,265.120 68.312,263.800 67.608 C 262.480 66.904,261.760 66.629,262.200 66.996 M267.200 69.735 C 267.200 70.077,272.071 72.862,272.289 72.645 C 272.393 72.541,271.695 72.057,270.739 71.570 C 269.782 71.083,268.595 70.420,268.100 70.096 C 267.605 69.773,267.200 69.610,267.200 69.735 M97.377 81.800 C 97.377 88.400,97.432 91.156,97.499 87.925 C 97.566 84.693,97.566 79.293,97.499 75.925 C 97.432 72.556,97.377 75.200,97.377 81.800 M100.071 70.568 C 100.220 70.737,101.570 71.590,103.071 72.463 C 104.572 73.336,105.530 73.788,105.200 73.467 C 104.559 72.844,99.614 70.049,100.071 70.568 M272.800 72.950 C 272.800 73.068,274.105 73.913,275.700 74.828 C 277.295 75.743,279.292 76.934,280.137 77.476 C 280.982 78.017,281.744 78.389,281.831 78.303 C 281.917 78.216,280.506 77.276,278.694 76.214 C 276.882 75.152,274.815 73.935,274.100 73.509 C 273.385 73.083,272.800 72.831,272.800 72.950 M107.200 74.864 C 107.970 75.331,109.542 76.318,110.694 77.057 C 113.100 78.601,114.110 78.892,111.938 77.416 C 109.868 76.009,106.415 73.999,106.082 74.007 C 105.927 74.010,106.430 74.396,107.200 74.864 M113.600 78.509 C 113.600 78.606,115.085 79.555,116.900 80.617 C 118.715 81.679,121.460 83.296,123.000 84.210 C 124.540 85.124,128.050 87.189,130.800 88.800 C 133.550 90.411,137.060 92.482,138.600 93.402 C 142.063 95.472,143.523 96.227,143.000 95.678 C 142.780 95.447,141.520 94.638,140.200 93.880 C 138.880 93.123,136.180 91.549,134.200 90.383 C 132.220 89.217,129.160 87.418,127.400 86.385 C 125.640 85.352,122.580 83.556,120.600 82.392 C 114.874 79.027,113.600 78.320,113.600 78.509 M282.400 78.509 C 282.400 78.694,287.154 81.538,290.600 83.415 C 291.700 84.014,292.884 84.750,293.231 85.052 C 293.579 85.353,294.008 85.600,294.185 85.600 C 294.781 85.600,292.626 84.117,289.400 82.306 C 287.640 81.318,285.345 80.020,284.300 79.421 C 283.255 78.822,282.400 78.411,282.400 78.509 M147.683 86.509 C 149.159 87.439,151.769 88.988,153.483 89.950 C 155.197 90.913,158.040 92.547,159.800 93.582 C 161.560 94.616,164.350 96.239,166.000 97.188 C 169.213 99.035,175.213 102.523,178.800 104.628 C 182.427 106.758,185.025 108.125,184.600 107.681 C 184.258 107.324,182.311 106.157,175.800 102.406 C 175.140 102.026,171.090 99.680,166.800 97.194 C 158.647 92.468,155.454 90.640,150.820 88.041 C 149.291 87.184,147.508 86.104,146.858 85.641 C 146.208 85.179,145.524 84.804,145.338 84.809 C 145.152 84.813,146.207 85.578,147.683 86.509 M295.000 85.893 C 295.220 86.104,298.010 87.766,301.200 89.587 C 308.842 93.947,308.633 93.827,314.400 97.193 C 317.150 98.799,319.876 100.361,320.458 100.664 C 321.998 101.468,322.528 102.205,321.905 102.673 C 321.323 103.110,314.858 106.858,308.300 110.561 C 307.255 111.151,306.400 111.729,306.400 111.846 C 306.400 112.055,308.826 110.749,313.200 108.186 C 314.410 107.478,316.884 106.041,318.697 104.994 C 323.239 102.370,323.758 101.399,321.064 100.563 C 320.589 100.416,319.696 99.940,319.080 99.506 C 318.464 99.072,316.754 98.044,315.280 97.221 C 313.806 96.398,309.180 93.743,305.000 91.321 C 297.129 86.761,294.313 85.233,295.000 85.893 M96.981 110.600 C 96.981 118.740,97.034 122.013,97.100 117.874 C 97.165 113.734,97.165 107.074,97.099 103.074 C 97.034 99.073,96.981 102.460,96.981 110.600 M144.366 96.697 C 144.897 97.084,146.427 97.993,147.766 98.717 C 149.105 99.441,149.763 99.711,149.230 99.317 C 148.696 98.923,147.166 98.014,145.830 97.297 C 144.493 96.581,143.835 96.311,144.366 96.697 M150.400 100.163 C 150.400 100.267,152.155 101.374,154.300 102.622 C 156.445 103.870,159.335 105.590,160.723 106.445 C 162.111 107.300,163.371 107.998,163.523 107.996 C 163.861 107.992,160.181 105.632,155.600 102.915 C 151.563 100.521,150.400 99.906,150.400 100.163 M164.000 108.135 C 164.000 108.218,165.485 109.156,167.300 110.220 C 169.115 111.284,170.738 112.345,170.906 112.577 C 171.122 112.874,171.038 364.949,170.823 365.900 C 170.723 366.338,169.133 365.763,167.067 364.543 C 165.710 363.741,163.610 362.542,162.400 361.879 C 161.190 361.216,159.448 360.162,158.528 359.537 C 157.608 358.911,156.756 358.400,156.633 358.400 C 156.511 358.400,154.924 357.526,153.106 356.458 C 151.287 355.390,148.000 353.470,145.800 352.192 C 143.600 350.914,140.498 349.088,138.907 348.134 C 137.316 347.180,135.917 346.400,135.798 346.400 C 135.680 346.400,134.912 345.973,134.091 345.451 C 131.615 343.875,123.587 339.200,123.358 339.200 C 123.240 339.200,122.359 338.660,121.400 338.000 C 120.441 337.340,119.512 336.800,119.335 336.800 C 118.627 336.800,124.619 340.424,137.200 347.605 C 138.630 348.422,141.420 350.044,143.400 351.211 C 145.380 352.378,148.170 353.991,149.600 354.794 C 151.030 355.598,153.120 356.828,154.244 357.528 C 155.369 358.228,156.416 358.800,156.572 358.800 C 156.728 358.800,157.609 359.318,158.530 359.952 C 159.451 360.586,161.194 361.645,162.402 362.307 C 163.611 362.968,165.669 364.160,166.976 364.955 C 168.284 365.750,169.747 366.400,170.228 366.400 L 171.103 366.400 171.308 329.900 C 171.421 309.825,171.488 252.643,171.457 202.829 L 171.400 112.257 169.200 110.924 C 166.400 109.227,164.000 107.940,164.000 108.135 M185.200 108.145 C 185.200 108.240,187.765 109.801,190.900 111.614 C 197.643 115.513,197.521 115.447,197.000 114.888 C 196.780 114.652,194.350 113.169,191.600 111.592 C 185.448 108.063,185.200 107.930,185.200 108.145 M300.651 114.994 C 295.857 117.760,293.676 119.173,296.000 118.007 C 297.917 117.045,306.000 112.319,306.000 112.160 C 306.000 111.905,306.048 111.880,300.651 114.994 M198.600 115.976 C 199.260 116.447,201.690 117.926,204.000 119.262 C 206.310 120.598,209.876 122.680,211.924 123.889 C 213.972 125.097,215.718 126.016,215.803 125.930 C 215.889 125.844,213.673 124.444,210.880 122.817 C 208.086 121.191,204.093 118.856,202.006 117.630 C 197.860 115.193,196.741 114.649,198.600 115.976 M292.664 119.600 C 291.624 120.260,290.691 120.800,290.592 120.800 C 290.430 120.800,288.612 121.846,281.200 126.201 C 279.990 126.912,278.190 127.947,277.200 128.501 C 272.141 131.334,268.800 133.303,268.800 133.451 C 268.800 133.708,271.972 132.034,274.308 130.544 C 275.467 129.805,276.525 129.200,276.658 129.200 C 276.792 129.200,278.363 128.326,280.151 127.257 C 281.938 126.188,284.660 124.595,286.200 123.717 C 292.644 120.041,294.800 118.754,294.800 118.582 C 294.800 118.274,294.619 118.361,292.664 119.600 M217.146 126.670 C 219.081 128.165,235.206 137.475,234.200 136.517 C 233.778 136.114,225.602 131.268,221.200 128.812 C 219.770 128.014,218.060 127.041,217.400 126.650 C 216.229 125.956,216.223 125.957,217.146 126.670 M96.577 143.400 C 96.577 149.780,96.632 152.334,96.699 149.076 C 96.767 145.817,96.766 140.597,96.699 137.476 C 96.631 134.354,96.576 137.020,96.577 143.400 M266.264 134.800 C 265.224 135.460,264.209 136.000,264.010 136.000 C 263.810 136.000,263.537 136.178,263.403 136.395 C 263.051 136.965,264.279 136.448,266.500 135.092 C 268.148 134.086,268.726 133.600,268.278 133.600 C 268.211 133.600,267.305 134.140,266.264 134.800 M237.309 138.510 C 242.944 142.024,247.961 144.800,248.667 144.794 C 250.124 144.782,250.324 144.181,248.877 144.165 C 247.509 144.149,243.179 141.867,236.709 137.749 C 235.888 137.227,235.078 136.805,234.909 136.810 C 234.739 136.816,235.819 137.581,237.309 138.510 M260.664 138.000 C 259.624 138.660,258.708 139.200,258.630 139.200 C 258.406 139.200,251.133 143.531,250.852 143.832 C 250.447 144.266,253.116 142.843,255.870 141.157 C 257.269 140.301,258.489 139.600,258.580 139.600 C 258.834 139.600,262.800 137.100,262.800 136.940 C 262.800 136.679,262.559 136.798,260.664 138.000 M96.596 239.200 C 96.596 285.290,96.643 304.145,96.700 281.100 C 96.757 258.055,96.757 220.345,96.700 197.300 C 96.643 174.255,96.596 193.110,96.596 239.200 M183.843 199.433 C 183.283 200.891,183.578 282.617,184.145 283.393 C 184.755 284.227,184.637 284.280,193.200 279.298 C 202.453 273.914,202.219 274.049,209.700 269.780 C 211.845 268.556,213.600 267.462,213.600 267.348 C 213.600 267.126,211.729 268.156,204.200 272.525 C 201.560 274.057,198.590 275.760,197.600 276.309 C 196.610 276.858,194.810 277.888,193.600 278.597 C 192.390 279.307,190.104 280.648,188.521 281.577 C 183.693 284.410,184.214 289.133,184.105 241.595 C 184.005 198.070,183.978 198.718,185.871 199.529 C 186.913 199.976,186.940 199.967,186.224 199.407 C 185.218 198.621,184.150 198.633,183.843 199.433 M187.600 200.413 C 188.167 200.814,193.463 203.912,199.200 207.197 C 205.909 211.040,209.925 213.383,211.291 214.252 C 212.920 215.287,213.901 215.566,212.525 214.603 C 211.641 213.984,206.520 210.965,202.000 208.398 C 200.570 207.586,197.150 205.617,194.400 204.022 C 189.672 201.280,186.282 199.481,187.600 200.413 M213.800 215.475 C 214.020 215.698,215.280 216.474,216.600 217.200 C 217.920 217.926,218.820 218.333,218.600 218.104 C 218.380 217.875,217.120 217.099,215.800 216.379 C 214.480 215.659,213.580 215.252,213.800 215.475 M219.400 218.702 C 219.620 218.940,220.880 219.713,222.200 220.421 C 223.520 221.129,224.420 221.523,224.200 221.298 C 223.647 220.731,218.904 218.166,219.400 218.702 M225.000 221.910 C 225.375 222.300,235.518 228.230,240.400 230.913 C 241.610 231.578,243.050 232.423,243.600 232.791 C 245.093 233.791,250.000 236.411,250.000 236.209 C 250.000 236.113,249.145 235.553,248.100 234.964 C 247.055 234.376,244.738 233.019,242.951 231.948 C 241.163 230.876,239.599 230.000,239.474 230.000 C 239.349 230.000,238.111 229.308,236.723 228.463 C 231.336 225.180,224.437 221.324,225.000 221.910 M251.400 237.124 C 251.620 237.353,253.060 238.251,254.600 239.120 C 258.548 241.349,258.647 241.206,249.556 246.400 C 242.088 250.667,237.374 253.613,242.400 250.872 C 250.100 246.673,257.819 241.992,257.927 241.455 C 258.007 241.057,257.268 240.324,255.927 239.469 C 253.427 237.877,250.828 236.530,251.400 237.124 M238.980 252.377 C 238.771 252.585,237.340 253.457,235.800 254.315 C 234.260 255.173,231.380 256.831,229.400 258.000 C 225.685 260.193,222.253 262.161,217.400 264.878 C 215.860 265.740,214.420 266.639,214.200 266.876 C 213.721 267.392,217.013 265.584,225.600 260.615 C 226.810 259.915,229.647 258.275,231.904 256.971 C 237.877 253.520,240.256 252.022,239.780 252.010 C 239.549 252.005,239.189 252.170,238.980 252.377 M96.800 323.935 C 96.800 324.098,98.015 324.902,99.500 325.722 C 100.985 326.541,103.820 328.168,105.800 329.336 C 111.039 332.427,116.864 335.804,117.900 336.352 C 119.507 337.202,118.850 336.497,117.100 335.494 C 113.418 333.384,102.834 327.221,99.900 325.479 C 98.195 324.467,96.800 323.772,96.800 323.935 " stroke="none" fill="#f6dcc7" fill-rule="evenodd"></path></g></svg>