<svg xmlns="http://www.w3.org/2000/svg" xmlns:xlink="http://www.w3.org/1999/xlink" aria-hidden="true" role="img" class="iconify iconify--fa6-solid" width="28" height="32" preserveAspectRatio="xMidYMid meet" viewBox="0 0 448 512"><path fill="#fc8019" d="M0 96c0-17.67 14.33-32 32-32h384c17.7 0 32 14.33 32 32c0 17.7-14.3 32-32 32H32c-17.67 0-32-14.3-32-32zm0 160c0-17.7 14.33-32 32-32h384c17.7 0 32 14.3 32 32s-14.3 32-32 32H32c-17.67 0-32-14.3-32-32zm416 192H32c-17.67 0-32-14.3-32-32s14.33-32 32-32h384c17.7 0 32 14.3 32 32s-14.3 32-32 32z"></path></svg>