<?xml version="1.0" standalone="no"?><svg xmlns="http://www.w3.org/2000/svg" viewBox="0 0 1440 320"><path fill="#fc8019" fill-opacity="0.5" d="M0,128L30,160C60,192,120,256,180,277.3C240,299,300,277,360,277.3C420,277,480,299,540,277.3C600,256,660,192,720,160C780,128,840,128,900,160C960,192,1020,256,1080,261.3C1140,267,1200,213,1260,170.7C1320,128,1380,96,1410,80L1440,64L1440,0L1410,0C1380,0,1320,0,1260,0C1200,0,1140,0,1080,0C1020,0,960,0,900,0C840,0,780,0,720,0C660,0,600,0,540,0C480,0,420,0,360,0C300,0,240,0,180,0C120,0,60,0,30,0L0,0Z"></path></svg>